<?xml version="1.0" encoding="utf-8"?>
<!-- Generator: Adobe Illustrator 27.5.0, SVG Export Plug-In . SVG Version: 6.00 Build 0)  -->
<svg version="1.1" xmlns="http://www.w3.org/2000/svg" xmlns:xlink="http://www.w3.org/1999/xlink" x="0px" y="0px"
	 viewBox="0 0 750 500" style="enable-background:new 0 0 750 500;" xml:space="preserve">

<g>
				<path style="fill:#63616B;" d="M603.006,355.376c-24.523-3.954-43.02-26.157-41.066-52.183
					c1.8-23.977,21.157-43.334,45.134-45.135c26.027-1.954,48.23,16.541,52.185,41.064c0.662,4.107-2.503,7.837-6.663,7.837h-0.514
					c-3.35,0-6.124-2.469-6.674-5.773c-2.893-17.378-18.62-30.473-37.076-29.181c-17.262,1.208-31.243,15.193-32.447,32.455
					c-1.287,18.454,11.807,34.175,29.183,37.067c3.304,0.55,5.773,3.324,5.773,6.673v0.516
					C610.842,352.873,607.112,356.038,603.006,355.376z"/>
			</g>
			<path style="fill:#48464C;" d="M610.842,348.198c0-3.349-2.469-6.123-5.773-6.673c-9.06-1.508-16.949-6.508-22.25-13.56
				c-3.055,4.063-5.248,8.81-6.305,13.971c7.086,6.955,16.26,11.79,26.492,13.439c4.106,0.662,7.835-2.503,7.835-6.662V348.198z"/>
			<g>
				<path style="fill:#50A0FF;" d="M614.608,397.902c-26.027,1.954-48.229-16.543-52.184-41.065
					c-0.662-4.106,2.503-7.836,6.662-7.836h0.514c3.35,0,6.123,2.469,6.673,5.773c2.892,17.377,18.617,30.472,37.071,29.182
					c17.262-1.206,31.245-15.189,32.451-32.451c1.29-18.454-11.805-34.179-29.182-37.072c-3.304-0.55-5.773-3.324-5.773-6.673
					v-0.514c0-4.159,3.73-7.324,7.836-6.662c24.523,3.954,43.019,26.157,41.065,52.184
					C657.943,376.745,638.585,396.102,614.608,397.902z"/>
			</g>
			<path style="fill:#2671BC;" d="M610.842,307.76c0,3.35,2.469,6.123,5.773,6.673c9.061,1.508,16.951,6.51,22.251,13.563
				c3.055-4.063,5.248-8.81,6.305-13.972c-7.086-6.956-16.261-11.792-26.493-13.442c-4.106-0.662-7.836,2.503-7.836,6.662V307.76z"
				/>
			<circle style="fill:#50A0FF;" cx="610.842" cy="349.001" r="15"/>
			<circle style="fill:#63616B;" cx="610.842" cy="306.959" r="15"/>
		</g>




</svg>