<?xml version="1.0"?>
<svg viewBox="0 0 750 500" xmlns="http://www.w3.org/2000/svg" xmlns:svg="http://www.w3.org/2000/svg" enable-background="new 0 0 750 500" version="1.1" xml:space="preserve">
 <g class="layer">
  <title>Layer 1</title>
  <g id="OBJECTS">
   <g id="svg_43">
    <g id="svg_47">
     <g id="svg_48">
      <path d="m347.24,344.25c-106.81,-13.79 -187.32,-91.08 -178.83,-181.71c7.84,-83.46 92.14,-150.86 196.51,-157.13c113.34,-6.82 210.01,57.59 227.25,142.96c2.87,14.31 -10.89,27.3 -29,27.3l-2.26,0c-14.59,0 -26.65,-8.6 -29.04,-20.09c-12.63,-60.51 -81.08,-106.12 -161.46,-101.63c-75.15,4.21 -136.03,52.92 -141.3,113.02c-5.57,64.24 51.42,118.97 127.1,129.07c14.37,1.91 25.12,11.56 25.12,23.22l0,1.81c0,14.45 -16.24,25.49 -34.09,23.19z" fill="#63616B" id="svg_49"/>
     </g>
     <path d="m381.34,319.26c0,-11.66 -10.76,-21.34 -25.12,-23.26c-39.45,-5.22 -73.81,-22.63 -96.88,-47.21c-13.32,14.17 -22.86,30.67 -27.48,48.67c30.87,24.2 70.8,41.05 115.39,46.79c17.85,2.3 34.09,-8.74 34.09,-23.22l0,-1.78z" fill="#48464C" id="svg_50"/>
     <g id="svg_51">
      <path d="m397.75,492.3c-113.34,6.82 -210.01,-57.59 -227.25,-142.96c-2.87,-14.31 10.93,-27.3 29.04,-27.3l2.22,0c14.59,0 26.65,8.6 29.04,20.09c12.63,60.51 81.08,106.12 161.41,101.63c75.2,-4.21 136.07,-52.89 141.34,-113.02c5.62,-64.24 -51.42,-118.97 -127.1,-129.07c-14.37,-1.91 -25.12,-11.56 -25.12,-23.22l0,-1.78c0,-14.48 16.24,-25.52 34.14,-23.22c106.77,13.79 187.32,91.08 178.79,181.71c-7.84,83.49 -92.09,150.86 -196.51,157.13z" fill="#50A0FF" id="svg_52"/>
     </g>
     <path d="m381.34,178.46c0,11.66 10.76,21.31 25.17,23.22c39.45,5.26 73.81,22.67 96.88,47.25c13.28,-14.17 22.82,-30.67 27.43,-48.67c-30.87,-24.2 -70.8,-41.05 -115.34,-46.79c-17.9,-2.3 -34.14,8.7 -34.14,23.19l0,1.81z" fill="#2671BC" id="svg_53"/>
     <circle cx="381.34" cy="322.04" fill="#50A0FF" id="svg_54" r="51.09"/>
     <circle cx="381.34" cy="175.67" fill="#63616B" id="svg_55" r="51.09"/>
    </g>
   </g>
  </g>
 </g>
</svg>